<?xml version="1.0" standalone="no"?>
<!DOCTYPE svg PUBLIC "-//W3C//DTD SVG 20010904//EN"
 "http://www.w3.org/TR/2001/REC-SVG-20010904/DTD/svg10.dtd">
<svg version="1.0" xmlns="http://www.w3.org/2000/svg"
 width="547.000000pt" height="213.000000pt" viewBox="0 0 547.000000 213.000000"
 preserveAspectRatio="xMidYMid meet">

<g transform="translate(0.000000,213.000000) scale(0.100000,-0.100000)"
fill="#000000" stroke="none">
<path d="M4154 1962 c-34 -21 -92 -55 -128 -77 l-67 -40 3 -125 c3 -113 5
-129 26 -154 32 -42 31 -136 -3 -191 -22 -36 -24 -51 -25 -145 0 -74 5 -112
15 -130 29 -50 33 -67 40 -170 12 -172 42 -189 52 -29 6 104 16 130 42 104 13
-13 17 -51 22 -203 4 -103 7 -188 8 -189 0 -2 7 -3 15 -3 19 0 26 31 27 130 0
47 4 110 7 140 7 51 9 55 38 61 18 3 65 25 105 49 41 23 90 51 109 62 19 11
46 28 60 38 39 27 128 70 145 70 8 0 73 -34 143 -76 70 -41 166 -94 214 -117
l88 -42 0 -135 c0 -145 5 -180 25 -180 20 0 23 17 30 191 8 164 14 199 39 199
10 0 16 -28 22 -102 8 -93 11 -103 29 -103 24 0 34 44 34 165 1 76 4 90 29
125 25 37 27 46 26 142 0 95 -3 105 -29 143 -39 56 -40 137 -2 201 22 37 28
62 33 145 7 107 4 114 -56 154 -12 8 -33 23 -45 33 -13 9 -26 17 -29 17 -3 0
-33 18 -67 40 -34 22 -72 40 -83 40 -21 0 -98 -42 -241 -130 -86 -53 -160 -90
-181 -90 -7 0 -39 17 -71 38 -123 81 -305 182 -325 181 -7 0 -41 -17 -74 -37z
m165 -71 c27 -16 91 -57 142 -90 51 -33 97 -62 103 -64 15 -6 13 -7 -78 -66
-43 -28 -86 -51 -96 -51 -9 0 -34 11 -54 25 -20 14 -39 25 -41 25 -2 0 -43 25
-90 55 -46 30 -87 55 -91 55 -11 0 -34 29 -34 44 0 24 118 96 157 96 18 0 54
-13 82 -29z m821 -13 c35 -24 65 -48 67 -54 4 -13 -71 -64 -302 -204 -93 -57
-219 -134 -280 -171 -183 -112 -364 -219 -379 -225 -24 -9 -181 90 -170 108
10 15 205 139 564 358 8 5 75 46 149 92 173 107 230 137 261 138 14 0 55 -19
90 -42z m-1064 -154 c22 -9 58 -29 82 -45 24 -16 47 -29 53 -29 5 0 9 -3 9 -8
0 -4 18 -18 40 -32 48 -30 48 -48 -2 -75 l-37 -19 -68 33 c-37 18 -77 40 -88
49 -50 41 -70 103 -43 130 15 15 8 15 54 -4z m1184 -32 c0 -27 -6 -55 -12 -64
-21 -24 -163 -108 -185 -108 -24 0 -73 36 -73 53 0 23 226 167 261 167 5 0 9
-22 9 -48z m-276 -212 c37 -22 70 -40 72 -40 14 0 154 -105 151 -114 -5 -16
-127 -94 -158 -101 -21 -5 -39 2 -76 27 -26 19 -86 57 -133 85 -47 29 -94 61
-104 71 -17 20 -16 21 26 50 52 36 105 60 133 61 11 1 51 -17 89 -39z m-858 9
c18 -20 18 -21 -1 -35 -25 -18 -49 -14 -53 9 -4 18 14 47 28 47 4 0 15 -9 26
-21z m1077 4 c9 -9 -22 -43 -40 -43 -13 0 -18 31 -6 43 8 9 38 9 46 0z m-454
-179 c63 -30 204 -120 239 -154 18 -17 22 -31 20 -63 -2 -28 -8 -43 -18 -44
-8 -2 -48 16 -89 39 -79 46 -84 49 -148 91 -24 15 -47 27 -52 27 -18 0 -31 37
-31 84 0 28 5 46 12 46 6 0 36 -12 67 -26z m-143 -8 c12 -51 1 -70 -71 -118
-93 -63 -230 -138 -249 -138 -12 0 -16 10 -16 39 0 22 3 47 6 56 7 16 71 61
179 123 127 73 141 77 151 38z m-466 -109 c25 -17 50 -38 57 -46 18 -23 16
-90 -2 -97 -18 -7 -143 59 -167 88 -20 23 -23 54 -8 93 10 25 10 26 42 9 18
-9 53 -31 78 -47z m1124 -12 c-4 -46 -26 -68 -112 -111 -61 -31 -72 -26 -72
38 0 45 28 74 115 118 54 28 60 29 66 13 4 -10 5 -36 3 -58z"/>
<path d="M4602 1604 c-26 -18 -28 -37 -6 -58 23 -23 57 -20 84 9 23 24 23 25
5 45 -22 24 -52 26 -83 4z"/>
<path d="M3517 1735 c-28 -58 -23 -76 16 -50 43 28 64 105 29 105 -12 0 -27
-19 -45 -55z"/>
<path d="M2915 1646 c-17 -12 -18 -19 -9 -70 12 -66 1 -99 -34 -104 -34 -5
-50 13 -63 76 -7 31 -16 65 -21 75 -11 22 -47 22 -55 1 -7 -19 11 -392 20
-400 3 -3 14 -1 25 5 20 11 22 16 42 114 8 42 18 62 35 73 35 23 63 10 70 -32
3 -19 7 -50 10 -69 7 -45 34 -47 59 -4 17 28 18 45 12 138 -8 128 -19 181 -42
198 -22 16 -26 16 -49 -1z"/>
<path d="M3413 1643 c-11 -28 15 -174 39 -223 18 -35 29 -46 50 -48 23 -3 32
3 49 32 24 41 49 47 49 12 0 -34 25 -53 46 -35 14 11 16 27 11 84 -14 184 -64
231 -97 93 -13 -50 -46 -102 -60 -93 -5 3 -11 24 -15 48 -18 120 -52 181 -72
130z"/>
<path d="M3090 1615 c-25 -31 13 -219 53 -262 29 -32 52 -29 84 12 31 39 53
45 53 16 0 -52 32 -69 51 -28 12 26 -13 223 -30 240 -22 22 -44 -1 -73 -75
-16 -43 -35 -78 -43 -78 -12 0 -22 32 -41 130 -10 56 -31 73 -54 45z"/>
<path d="M2105 1586 c-69 -30 -105 -103 -105 -213 0 -79 13 -107 66 -138 97
-57 230 -58 292 -1 44 41 37 61 -20 52 -22 -4 -53 -13 -69 -21 -37 -20 -65
-19 -117 5 -33 15 -47 29 -62 62 -45 100 -12 177 85 199 78 18 97 27 93 47 -3
14 -16 17 -68 19 -38 2 -78 -3 -95 -11z"/>
<path d="M2417 1553 c-21 -20 14 -217 47 -267 23 -35 48 -33 87 9 19 19 36 35
39 35 4 0 14 -16 24 -36 13 -29 20 -34 29 -25 18 18 12 189 -8 236 -14 36 -16
37 -34 21 -10 -9 -31 -51 -46 -92 -15 -40 -31 -74 -36 -74 -12 0 -25 31 -45
110 -19 79 -37 104 -57 83z"/>
<path d="M3381 1174 c-28 -36 -48 -101 -34 -115 14 -14 76 40 93 81 24 59 -20
84 -59 34z"/>
<path d="M2581 1161 c-61 -65 -73 -253 -27 -424 27 -103 33 -171 16 -182 -5
-3 -10 -15 -10 -27 0 -18 4 -20 31 -14 81 16 257 164 260 219 3 62 -21 92 -91
114 -30 9 -58 19 -62 23 -4 3 15 44 42 90 27 47 50 95 50 108 0 49 -41 96 -99
112 -58 16 -81 12 -110 -19z m119 -36 c18 -21 16 -85 -3 -122 -9 -17 -31 -43
-49 -58 l-32 -27 -18 22 c-36 45 -17 136 38 179 32 25 47 26 64 6z m13 -318
c45 -19 61 -41 53 -73 -9 -33 -71 -97 -88 -92 -20 7 -49 76 -51 120 -2 56 24
70 86 45z"/>
<path d="M3005 1091 c-27 -12 -73 -104 -81 -163 -10 -74 36 -163 96 -188 73
-30 160 65 160 174 0 48 -40 133 -75 159 -30 21 -73 29 -100 18z m68 -115 c24
-19 38 -71 27 -102 -19 -48 -85 -51 -110 -4 -15 27 -13 45 11 84 22 38 43 44
72 22z"/>
<path d="M3227 1043 c-6 -10 8 -132 24 -211 32 -155 85 -192 155 -107 20 25
40 45 44 45 4 0 11 -19 16 -42 7 -33 14 -44 31 -46 47 -7 53 75 19 251 -15 77
-25 92 -55 82 -15 -5 -27 -27 -47 -94 -28 -94 -56 -143 -73 -126 -5 6 -15 48
-21 95 -13 104 -27 150 -45 150 -7 0 -20 3 -28 6 -8 3 -17 1 -20 -3z"/>
<path d="M2286 999 c-41 -48 -56 -83 -62 -148 -6 -49 -3 -67 16 -106 39 -80
131 -112 178 -62 53 56 77 163 50 224 -31 70 -89 123 -137 123 -10 0 -31 -14
-45 -31z m93 -113 c12 -18 21 -45 21 -60 0 -26 -31 -66 -51 -66 -15 0 -52 21
-62 34 -10 15 1 74 20 102 21 33 48 30 72 -10z"/>
<path d="M1856 977 c-16 -12 -20 -33 -24 -134 -5 -141 13 -391 34 -463 11 -38
22 -53 40 -60 25 -10 74 -14 74 -6 0 2 -14 36 -31 77 -35 84 -49 189 -29 214
7 9 55 36 106 60 105 51 129 77 129 141 0 65 -46 100 -158 119 -20 3 -53 19
-71 35 -38 34 -45 35 -70 17z m182 -133 c36 -25 30 -75 -13 -113 -76 -66 -140
-20 -105 76 20 52 72 69 118 37z"/>
<path d="M1440 876 c-11 -6 -36 -40 -55 -76 -18 -36 -39 -65 -46 -65 -8 0 -17
18 -21 44 -11 65 -44 91 -76 59 -16 -16 -15 -117 3 -241 21 -146 22 -147 49
-147 36 0 40 8 85 175 6 22 17 49 26 60 15 20 15 20 30 1 14 -18 21 -52 29
-150 2 -26 8 -52 13 -57 17 -17 60 7 67 38 19 79 59 194 75 214 37 46 47 13
57 -201 3 -74 8 -137 10 -139 3 -3 17 0 32 5 41 14 55 68 48 187 -6 120 -34
277 -51 295 -20 22 -79 -9 -117 -63 -18 -25 -39 -44 -47 -43 -7 2 -23 26 -33
55 -21 55 -42 68 -78 49z"/>
<path d="M1052 850 c-34 -14 -36 -34 -11 -106 l24 -67 -35 -29 c-19 -16 -44
-27 -55 -26 -26 4 -51 58 -60 128 -9 70 -20 90 -49 90 -50 0 -54 -21 -37 -210
6 -63 11 -154 11 -202 0 -79 2 -88 18 -88 37 0 61 42 72 125 10 79 19 98 52
116 24 13 76 -14 83 -44 3 -12 6 -47 7 -77 3 -62 19 -73 63 -44 l27 18 -6 130
c-9 186 -23 263 -49 281 -24 17 -24 17 -55 5z"/>
<path d="M576 797 c-67 -113 -72 -179 -19 -257 44 -64 50 -70 81 -70 107 -1
177 157 123 275 -26 58 -73 95 -121 95 -35 0 -42 -4 -64 -43z m114 -108 c23
-44 20 -71 -13 -106 -27 -30 -41 -29 -66 3 -25 32 -27 64 -5 110 24 49 57 47
84 -7z"/>
<path d="M74 735 c-11 -27 3 -224 21 -302 19 -82 51 -138 80 -138 19 0 20 6
18 93 -2 75 0 92 12 92 15 0 59 -28 122 -77 51 -41 99 -64 116 -57 8 3 19 16
25 29 10 22 7 28 -36 62 -68 55 -101 83 -147 125 l-40 37 53 54 c92 94 49 132
-58 53 -34 -25 -68 -46 -76 -46 -7 0 -16 12 -19 28 -4 15 -10 34 -14 42 -12
22 -50 25 -57 5z"/>
</g>
</svg>
