<?xml version="1.0" standalone="no"?>
<!DOCTYPE svg PUBLIC "-//W3C//DTD SVG 20010904//EN"
 "http://www.w3.org/TR/2001/REC-SVG-20010904/DTD/svg10.dtd">
<svg version="1.0" xmlns="http://www.w3.org/2000/svg"
 width="599.000000pt" height="593.000000pt" viewBox="0 0 599.000000 593.000000"
 preserveAspectRatio="xMidYMid meet">

<g transform="translate(0.000000,593.000000) scale(0.100000,-0.100000)"
fill="#000000" stroke="none">
<path d="M3988 3548 l-98 -61 0 -92 c0 -79 3 -94 20 -110 29 -26 28 -120 -1
-151 -19 -20 -22 -35 -21 -110 1 -72 4 -90 21 -108 17 -18 21 -37 23 -116 3
-81 6 -95 21 -98 15 -3 17 6 17 77 0 84 12 109 37 76 9 -14 13 -57 13 -158 0
-126 2 -138 18 -135 15 3 17 18 20 126 3 122 4 127 40 123 7 -1 75 37 151 84
77 47 145 85 151 85 7 0 73 -36 147 -81 74 -45 147 -84 161 -88 l27 -7 3 -123
c2 -109 4 -122 20 -119 15 3 18 21 22 148 4 128 7 145 23 148 9 2 17 0 17 -5
2 -59 10 -146 14 -150 3 -3 12 -3 21 0 12 5 15 25 15 98 0 81 3 94 23 119 21
24 23 37 22 109 -1 69 -5 84 -23 102 -31 28 -31 123 -1 155 16 17 21 38 24
100 2 42 1 83 -2 90 -5 15 -194 134 -211 134 -10 0 -33 -13 -207 -120 -76 -47
-117 -60 -129 -41 -8 12 -260 161 -272 160 -5 0 -53 -28 -106 -61z m232 -62
c36 -23 80 -52 99 -63 l34 -21 -64 -41 c-73 -46 -81 -48 -117 -22 -15 10 -63
40 -107 66 -113 68 -113 65 -24 120 62 37 59 38 179 -39z m555 29 c30 -19 55
-39 55 -44 0 -5 -55 -43 -122 -84 -68 -41 -231 -140 -362 -220 -131 -81 -242
-147 -247 -147 -18 0 -129 74 -126 84 2 6 138 93 303 193 164 100 324 198 354
217 30 20 63 36 73 36 10 0 42 -16 72 -35z m93 -150 c-2 -29 -10 -42 -30 -54
-14 -9 -47 -29 -72 -44 -44 -27 -47 -27 -76 -12 -20 10 -30 22 -28 33 4 21
190 134 201 123 5 -5 7 -25 5 -46z m-809 -12 c50 -31 91 -62 91 -68 0 -6 -15
-19 -34 -27 -37 -18 -25 -22 -134 39 -41 23 -52 39 -52 77 0 51 18 48 129 -21z
m615 -145 c97 -57 156 -97 156 -107 0 -11 -117 -81 -135 -81 -8 0 -16 4 -19 8
-3 5 -52 37 -111 71 -58 35 -104 69 -102 75 5 14 108 76 126 76 8 0 47 -19 85
-42z m-659 16 c15 -15 14 -18 -5 -31 -11 -8 -25 -11 -30 -8 -14 9 -12 42 3 48
6 3 13 6 14 6 1 1 9 -6 18 -15z m805 -14 c-12 -22 -40 -27 -40 -7 0 19 10 27
32 27 16 0 17 -3 8 -20z m-200 -201 c54 -36 60 -43 60 -75 0 -20 -6 -37 -14
-40 -7 -3 -52 19 -99 48 -47 29 -99 61 -116 70 -26 15 -31 23 -31 56 0 21 3
42 7 45 7 8 103 -44 193 -104z m-242 66 c1 -17 -1 -35 -5 -41 -12 -18 -222
-144 -239 -144 -12 0 -14 10 -12 42 3 43 3 43 113 110 61 37 117 67 125 65 9
-1 16 -15 18 -32z m-376 -57 c29 -17 59 -38 66 -46 16 -21 15 -71 -2 -78 -13
-5 -114 50 -128 70 -15 21 -8 86 9 86 1 0 26 -14 55 -32z m868 -12 c0 -44 -1
-45 -61 -81 -34 -21 -64 -34 -69 -29 -5 5 -10 24 -12 43 -3 32 1 36 57 72 33
21 66 38 73 38 8 1 12 -14 12 -43z"/>
<path d="M4360 3301 c-7 -15 -6 -23 6 -35 21 -22 40 -20 65 5 16 16 18 23 8
35 -17 21 -66 18 -79 -5z"/>
<path d="M3576 3443 c-7 -7 -36 -71 -36 -79 0 -2 6 -4 14 -4 19 0 56 47 56 71
0 19 -20 26 -34 12z"/>
<path d="M3482 3348 c-14 -17 10 -159 33 -194 23 -35 51 -31 74 14 16 30 29
28 33 -5 2 -20 9 -28 23 -28 26 0 29 29 13 125 -10 56 -17 76 -30 78 -13 2
-21 -11 -34 -55 -17 -57 -38 -92 -49 -81 -3 3 -10 34 -16 69 -11 71 -28 99
-47 77z"/>
<path d="M3101 3336 c-8 -9 -8 -22 0 -44 14 -42 8 -73 -17 -82 -32 -12 -45 3
-58 66 -11 53 -14 59 -36 59 -23 0 -25 -4 -23 -40 2 -22 5 -92 8 -155 3 -63 7
-116 9 -117 2 -2 10 -1 19 3 18 7 23 18 32 87 5 38 12 50 30 59 36 16 55 -4
55 -58 0 -53 17 -65 43 -33 17 22 19 34 13 122 -4 54 -12 109 -18 123 -12 26
-39 32 -57 10z"/>
<path d="M3233 3314 c-8 -20 12 -135 29 -170 7 -15 21 -32 31 -38 15 -9 23 -6
46 22 33 38 41 40 41 8 0 -33 20 -44 37 -20 9 12 11 29 7 49 -4 16 -10 55 -13
85 -5 46 -10 56 -27 58 -17 2 -23 -7 -40 -60 -24 -79 -45 -84 -56 -13 -13 82
-18 95 -34 95 -8 0 -17 -7 -21 -16z"/>
<path d="M2491 3292 c-49 -27 -71 -73 -71 -152 0 -59 3 -69 28 -92 54 -51 169
-65 230 -28 65 40 29 75 -42 40 -39 -18 -50 -20 -85 -10 -33 9 -45 19 -61 50
-44 86 -11 150 81 160 46 4 54 8 54 25 0 17 -8 20 -50 23 -34 2 -61 -3 -84
-16z"/>
<path d="M2731 3266 c-12 -14 10 -140 32 -186 18 -38 46 -37 78 1 29 36 27 36
44 -17 3 -9 11 -14 18 -11 18 6 11 177 -9 197 -14 13 -17 13 -29 -4 -8 -11
-22 -43 -30 -73 -10 -33 -21 -53 -28 -50 -6 2 -18 36 -26 75 -15 71 -30 92
-50 68z"/>
<path d="M3462 2998 c-5 -7 -17 -31 -26 -52 -13 -31 -14 -41 -4 -47 22 -14 78
55 78 96 0 18 -33 20 -48 3z"/>
<path d="M2867 2990 c-56 -35 -71 -206 -30 -335 26 -80 28 -107 11 -135 -36
-58 66 -26 139 43 75 70 88 98 68 137 -11 21 -27 32 -58 41 -23 6 -47 13 -54
15 -7 2 6 29 33 70 50 75 52 100 10 142 -26 27 -91 38 -119 22z m89 -55 c3
-14 3 -36 0 -49 -8 -32 -54 -86 -72 -86 -19 0 -37 48 -29 79 18 71 87 110 101
56z m9 -227 c42 -19 43 -54 4 -94 -18 -19 -38 -33 -43 -31 -5 2 -17 25 -27 53
-25 75 0 102 66 72z"/>
<path d="M3162 2918 c-26 -33 -52 -101 -52 -136 0 -46 33 -101 73 -120 22 -11
32 -11 54 0 34 16 73 83 73 126 0 40 -32 105 -62 126 -27 19 -72 21 -86 4z
m70 -85 c25 -22 24 -79 -1 -93 -28 -14 -38 -13 -61 10 -11 11 -17 27 -14 37
21 64 42 77 76 46z"/>
<path d="M3344 2823 c18 -192 77 -264 136 -167 27 43 40 43 40 0 0 -41 27 -57
48 -29 13 19 12 50 -10 181 -9 56 -12 62 -34 62 -19 0 -25 -8 -34 -42 -23 -88
-38 -123 -54 -126 -9 -2 -16 0 -16 5 0 12 -19 135 -25 161 -4 16 -13 22 -32
22 l-26 0 7 -67z"/>
<path d="M2638 2863 c-46 -52 -65 -136 -44 -186 21 -51 54 -77 97 -77 41 0 59
20 85 92 18 52 3 107 -42 154 -35 38 -72 44 -96 17z m72 -95 c21 -35 18 -65
-7 -85 -17 -13 -52 -4 -66 19 -18 27 14 98 44 98 5 0 18 -15 29 -32z"/>
<path d="M2306 2835 c-21 -21 -11 -366 13 -440 15 -48 18 -50 55 -53 21 -2 36
0 34 5 -36 73 -51 113 -55 157 -6 60 -6 61 90 100 70 30 97 59 97 108 0 50
-55 88 -129 88 -13 0 -32 11 -43 25 -22 29 -40 31 -62 10z m152 -97 c19 -19
14 -53 -13 -82 -25 -28 -63 -34 -83 -14 -16 16 -15 31 2 73 13 30 20 35 48 35
19 0 39 -5 46 -12z"/>
<path d="M1964 2710 c-32 -70 -54 -79 -54 -21 0 42 -18 65 -44 55 -31 -12 -31
-61 0 -261 5 -37 16 -47 42 -39 12 4 22 29 35 84 16 72 30 102 48 102 13 0 29
-63 29 -117 0 -53 1 -54 27 -51 22 2 29 10 36 38 33 138 56 185 79 162 11 -11
16 -86 18 -254 0 -5 11 -8 25 -8 46 0 57 100 29 262 -9 51 -18 96 -21 101 -11
19 -53 5 -82 -28 -17 -20 -31 -40 -31 -45 0 -6 -6 -10 -14 -10 -7 0 -19 20
-26 45 -11 39 -16 45 -40 45 -25 0 -32 -8 -56 -60z"/>
<path d="M1697 2738 c-15 -12 -15 -17 3 -66 l19 -54 -24 -24 c-44 -44 -72 -22
-85 63 -10 73 -15 83 -39 83 -33 0 -44 -26 -36 -78 10 -58 17 -168 15 -245 -1
-56 0 -58 22 -55 30 4 48 42 48 101 0 57 27 92 63 82 35 -11 47 -34 41 -79 -7
-58 6 -75 42 -52 l27 18 -7 136 c-4 95 -11 142 -21 159 -17 25 -43 30 -68 11z"/>
<path d="M1340 2680 c-33 -66 -40 -130 -14 -151 8 -7 22 -25 30 -41 13 -26 20
-29 57 -26 35 3 45 9 69 43 61 88 8 235 -84 235 -24 0 -32 -8 -58 -60z m102
-59 c17 -35 16 -44 -17 -85 -15 -19 -15 -19 -40 4 -29 27 -31 49 -9 91 19 38
44 35 66 -10z"/>
<path d="M975 2660 c-4 -7 -4 -51 0 -98 11 -149 43 -245 79 -240 17 2 21 10
20 38 0 19 -4 52 -8 73 -11 52 5 49 92 -18 40 -30 79 -55 87 -55 12 0 35 28
35 44 0 3 -38 35 -85 71 -47 37 -85 73 -85 80 0 7 19 29 42 48 28 24 39 39 35
51 -10 26 -44 19 -86 -19 -49 -44 -69 -45 -73 -2 -2 24 -8 33 -25 35 -11 2
-24 -2 -28 -8z"/>
</g>
</svg>
